<?xml version="1.0" encoding="UTF-8" standalone="no"?>
<svg
   version="1.1"
   viewBox="0 0 12.000032 12.001016"
   id="svg706"
   width="12.000032"
   height="12.001016">
  <defs
     id="defs188">
    <path
       d="M 12,7.023 V 4.977 A 0.641,0.641 0 0 0 11.357,4.334 H 7.667 V 0.643 A 0.641,0.641 0 0 0 7.022,0 H 4.977 A 0.641,0.641 0 0 0 4.334,0.643 v 3.69 H 0.643 A 0.641,0.641 0 0 0 0,4.978 V 7.024 C 0,7.38 0.287,7.667 0.643,7.667 h 3.69 v 3.691 c 0,0.356 0.288,0.643 0.644,0.643 h 2.046 a 0.641,0.641 0 0 0 0.643,-0.643 v -3.69 h 3.691 A 0.641,0.641 0 0 0 12,7.022 Z"
       id="b" />
  </defs>
  <use
     fill="currentColor"
     xlink:href="#b"
     id="use704"/>
</svg>
