<?xml version="1.0" encoding="UTF-8" standalone="no"?>
<svg
   width="137.5"
   height="20"
   version="1.1"
   id="svg27"
   sodipodi:docname="logo.svg"
   inkscape:version="1.2.1 (0f2f062aeb, 2022-09-21, custom)"
   xmlns:inkscape="http://www.inkscape.org/namespaces/inkscape"
   xmlns:sodipodi="http://sodipodi.sourceforge.net/DTD/sodipodi-0.dtd"
   xmlns="http://www.w3.org/2000/svg"
   xmlns:svg="http://www.w3.org/2000/svg">
  <defs
     id="defs31" />
  <sodipodi:namedview
     id="namedview29"
     pagecolor="#ffffff"
     bordercolor="#666666"
     borderopacity="1.0"
     inkscape:showpageshadow="2"
     inkscape:pageopacity="0.0"
     inkscape:pagecheckerboard="0"
     inkscape:deskcolor="#d1d1d1"
     showgrid="false"
     inkscape:zoom="2"
     inkscape:cx="116.5"
     inkscape:cy="-9.75"
     inkscape:window-width="1878"
     inkscape:window-height="1016"
     inkscape:window-x="42"
     inkscape:window-y="27"
     inkscape:window-maximized="1"
     inkscape:current-layer="svg27" />
  <path
     d="m 8.217,20 c 4.761,0 7.519,-0.753 7.519,-4.606 0,-3.4 -3.38,-4.172 -6.66,-4.682 L 8.516,10.627 8.237,10.586 7.887,10.533 c -2.7,-0.405 -3.18,-0.788 -3.18,-1.471 0,-0.478 0.49,-1.331 2.843,-1.331 2.455,0 3.493,0.647 3.493,1.87 v 0.134 h 4.281 V 9.602 c 0,-2.389 -1.35,-5.238 -7.774,-5.238 -5.952,0 -7.201,2.584 -7.201,4.752 0,3.097 2.763,4.086 7.223,4.675 0.21,0.028 0.433,0.054 0.659,0.081 1.669,0.197 3.172,0.42 3.172,1.585 0,1.01 -1.615,1.222 -3.298,1.222 -2.797,0 -3.784,-0.593 -3.784,-1.92 V 14.625 H 0.002 L 0,14.926 v 0.317 c 0.008,0.79 0.118,1.913 1.057,2.862 C 2.303,19.362 4.712,20 8.217,20 Z m 13.21,0 v -7.49 c 0,-2.104 0.547,-4.423 4.176,-4.423 3.915,0 3.778,2.777 3.768,4.042 V 20 h 4.18 v -7.768 c 0,-2.264 -0.176,-7.766 -6.732,-7.766 -2.778,0 -4.192,0.911 -5.195,2.28 H 21.427 V 4.467 H 17.22 V 20 Z m 21.959,0 c 5.094,0 7.787,-2.07 8.217,-5.405 H 47.53 c -0.386,1.02 -1.63,1.72 -4.143,1.72 -2.721,0 -3.962,-1.03 -4.25,-3.106 h 12.527 c 0.24,-2.13 -0.029,-5.417 -3.026,-7.44 V 5.774 C 47.326,4.859 45.582,4.309 43.387,4.309 c -5.24,0 -8.336,2.772 -8.336,7.845 0,5.17 3.02,7.846 8.336,7.846 z m 4.099,-9.574 h -8.188 c 0.486,-1.574 1.764,-2.431 4.089,-2.431 2.994,0 3.755,1.267 4.099,2.431 z M 70.499,20 V 4.457 H 66.29 V 6.74 H 66.114 C 65.061,5.363 63.305,4.457 60.437,4.457 c -6.433,0 -7.225,5.293 -7.253,7.635 v 0.137 c 0,2.092 0.732,7.771 7.241,7.771 2.914,0 4.684,-0.818 5.734,-2.169 H 66.29 V 20 h 4.21 z m -8.854,-3.623 c -3.996,0 -4.447,-3.032 -4.447,-4.148 0,-1.21 0.426,-4.148 4.455,-4.148 3.631,0 4.374,2.044 4.374,4.148 0,2.35 -0.742,4.148 -4.382,4.148 z M 88.826,20 82.297,10.955 88.885,4.467 h -5.827 l -6.836,6.756 V 0 h -4.187 v 19.954 h 4.187 V 16.94 L 79.242,13.964 83.6,20 Z m 9.9,0 c 5.094,0 7.786,-2.07 8.217,-5.405 h -4.074 c -0.387,1.02 -1.63,1.72 -4.143,1.72 -2.721,0 -3.962,-1.03 -4.25,-3.106 h 12.527 c 0.24,-2.13 -0.029,-5.417 -3.026,-7.44 v 0.005 c -1.312,-0.915 -3.057,-1.465 -5.251,-1.465 -5.24,0 -8.336,2.772 -8.336,7.845 0,5.17 3.02,7.846 8.336,7.846 z m 4.098,-9.574 h -8.187 c 0.485,-1.574 1.763,-2.431 4.089,-2.431 2.994,0 3.755,1.267 4.098,2.431 z M 112.76,20 v -6.97 c 0,-2.103 0.931,-4.542 4.05,-4.542 1.33,0 2.393,0.236 2.785,0.346 l 0.67,-3.976 c -0.728,-0.16 -1.626,-0.392 -2.757,-0.392 -2.665,0 -3.622,0.794 -4.486,2.282 H 112.76 V 4.466 h -4.21 V 20 Z m 17.221,0 c 4.761,0 7.519,-0.753 7.519,-4.606 0,-3.4 -3.38,-4.172 -6.66,-4.682 l -0.56,-0.085 -0.279,-0.041 -0.349,-0.053 c -2.701,-0.405 -3.181,-0.788 -3.181,-1.471 0,-0.478 0.49,-1.331 2.843,-1.331 2.455,0 3.493,0.647 3.493,1.87 v 0.134 h 4.282 V 9.602 c 0,-2.389 -1.35,-5.238 -7.775,-5.238 -5.952,0 -7.201,2.584 -7.201,4.752 0,3.097 2.763,4.086 7.224,4.675 0.21,0.028 0.432,0.054 0.658,0.081 1.669,0.197 3.172,0.42 3.172,1.585 0,1.01 -1.615,1.222 -3.298,1.222 -2.796,0 -3.784,-0.593 -3.784,-1.92 v -0.134 h -4.319 l -0.001,0.301 v 0.317 c 0.008,0.79 0.117,1.913 1.056,2.862 1.246,1.257 3.655,1.895 7.16,1.895 z"
     fill="currentColor"
     fill-rule="nonzero"
     id="path25" />
</svg>
